<?xml version="1.0" encoding="UTF-8" standalone="no"?>
<!DOCTYPE svg PUBLIC "-//W3C//DTD SVG 1.1//EN"
 "http://www.w3.org/Graphics/SVG/1.1/DTD/svg11.dtd">
<!-- Generated by graphviz version 14.1.2 (0)
 -->
<!-- Title: cwsd Pages: 1 -->
<svg width="602pt" height="295pt"
 viewBox="0.00 0.00 602.00 295.00" xmlns="http://www.w3.org/2000/svg" xmlns:xlink="http://www.w3.org/1999/xlink">
<g id="graph0" class="graph" transform="scale(1 1) rotate(0) translate(21.6 273.6)">
<title>cwsd</title>
<polygon fill="white" stroke="none" points="-21.6,21.6 -21.6,-273.6 580.6,-273.6 580.6,21.6 -21.6,21.6"/>
<g id="clust1" class="cluster">
<title>cluster_rig</title>
<path fill="#e7f1ff" stroke="#9ec5fe" d="M20,-40C20,-40 127,-40 127,-40 133,-40 139,-46 139,-52 139,-52 139,-156 139,-156 139,-162 133,-168 127,-168 127,-168 20,-168 20,-168 14,-168 8,-162 8,-156 8,-156 8,-52 8,-52 8,-46 14,-40 20,-40"/>
<text xml:space="preserve" text-anchor="middle" x="73.5" y="-152.6" font-family="Helvetica,sans-Serif" font-size="12.00">Icom IC&#45;7300</text>
</g>
<g id="clust2" class="cluster">
<title>cluster_cwsd</title>
<path fill="#eafaf1" stroke="#a3cfbb" d="M208.5,-8C208.5,-8 328.25,-8 328.25,-8 334.25,-8 340.25,-14 340.25,-20 340.25,-20 340.25,-232 340.25,-232 340.25,-238 334.25,-244 328.25,-244 328.25,-244 208.5,-244 208.5,-244 202.5,-244 196.5,-238 196.5,-232 196.5,-232 196.5,-20 196.5,-20 196.5,-14 202.5,-8 208.5,-8"/>
<text xml:space="preserve" text-anchor="middle" x="268.38" y="-228.6" font-family="Helvetica,sans-Serif" font-size="12.00">cwsd daemon</text>
</g>
<!-- cat -->
<g id="node1" class="node">
<title>cat</title>
<path fill="#cfe2ff" stroke="black" d="M116,-138C116,-138 31,-138 31,-138 25,-138 19,-132 19,-126 19,-126 19,-114 19,-114 19,-108 25,-102 31,-102 31,-102 116,-102 116,-102 122,-102 128,-108 128,-114 128,-114 128,-126 128,-126 128,-132 122,-138 116,-138"/>
<text xml:space="preserve" text-anchor="middle" x="73.5" y="-123.05" font-family="Helvetica,sans-Serif" font-size="11.00">USB serial</text>
<text xml:space="preserve" text-anchor="middle" x="73.5" y="-109.55" font-family="Helvetica,sans-Serif" font-size="11.00">(CAT + DTR/RTS)</text>
</g>
<!-- rigctld -->
<g id="node3" class="node">
<title>rigctld</title>
<path fill="#d1e7dd" stroke="black" d="M301.12,-160C301.12,-160 235.62,-160 235.62,-160 229.62,-160 223.62,-154 223.62,-148 223.62,-148 223.62,-136 223.62,-136 223.62,-130 229.62,-124 235.62,-124 235.62,-124 301.12,-124 301.12,-124 307.12,-124 313.12,-130 313.12,-136 313.12,-136 313.12,-148 313.12,-148 313.12,-154 307.12,-160 301.12,-160"/>
<text xml:space="preserve" text-anchor="middle" x="268.38" y="-145.05" font-family="Helvetica,sans-Serif" font-size="11.00">rigctld server</text>
<text xml:space="preserve" text-anchor="middle" x="268.38" y="-131.55" font-family="Helvetica,sans-Serif" font-size="11.00">TCP 4532</text>
</g>
<!-- cat&#45;&gt;rigctld -->
<g id="edge1" class="edge">
<title>cat&#45;&gt;rigctld</title>
<path fill="none" stroke="#555555" d="M139.6,-127.43C163.02,-130.1 189.2,-133.08 211.74,-135.65"/>
<polygon fill="#555555" stroke="#555555" points="140.32,-123.98 129.99,-126.33 139.53,-130.94 140.32,-123.98"/>
<polygon fill="#555555" stroke="#555555" points="211.32,-139.13 221.65,-136.78 212.12,-132.17 211.32,-139.13"/>
<text xml:space="preserve" text-anchor="middle" x="167.75" y="-135.02" font-family="Helvetica,sans-Serif" font-size="9.00">CAT</text>
</g>
<!-- cwd -->
<g id="node4" class="node">
<title>cwd</title>
<path fill="#d1e7dd" stroke="black" d="M313.5,-106C313.5,-106 223.25,-106 223.25,-106 217.25,-106 211.25,-100 211.25,-94 211.25,-94 211.25,-82 211.25,-82 211.25,-76 217.25,-70 223.25,-70 223.25,-70 313.5,-70 313.5,-70 319.5,-70 325.5,-76 325.5,-82 325.5,-82 325.5,-94 325.5,-94 325.5,-100 319.5,-106 313.5,-106"/>
<text xml:space="preserve" text-anchor="middle" x="268.38" y="-91.05" font-family="Helvetica,sans-Serif" font-size="11.00">cwdaemon server</text>
<text xml:space="preserve" text-anchor="middle" x="268.38" y="-77.55" font-family="Helvetica,sans-Serif" font-size="11.00">UDP 6789</text>
</g>
<!-- cat&#45;&gt;cwd -->
<g id="edge2" class="edge">
<title>cat&#45;&gt;cwd</title>
<path fill="none" stroke="#555555" d="M139.62,-109.2C158.99,-105.98 180.25,-102.45 199.78,-99.21"/>
<polygon fill="#555555" stroke="#555555" points="139.27,-105.71 129.98,-110.8 140.41,-112.61 139.27,-105.71"/>
<polygon fill="#555555" stroke="#555555" points="200.27,-102.68 209.56,-97.59 199.12,-95.78 200.27,-102.68"/>
<text xml:space="preserve" text-anchor="middle" x="167.75" y="-109.57" font-family="Helvetica,sans-Serif" font-size="9.00">DTR/RTS</text>
</g>
<!-- rkey -->
<g id="node6" class="node">
<title>rkey</title>
<path fill="#d1e7dd" stroke="black" d="M315.38,-214C315.38,-214 221.38,-214 221.38,-214 215.38,-214 209.38,-208 209.38,-202 209.38,-202 209.38,-190 209.38,-190 209.38,-184 215.38,-178 221.38,-178 221.38,-178 315.38,-178 315.38,-178 321.38,-178 327.38,-184 327.38,-190 327.38,-190 327.38,-202 327.38,-202 327.38,-208 321.38,-214 315.38,-214"/>
<text xml:space="preserve" text-anchor="middle" x="268.38" y="-199.05" font-family="Helvetica,sans-Serif" font-size="11.00">remote key server</text>
<text xml:space="preserve" text-anchor="middle" x="268.38" y="-185.55" font-family="Helvetica,sans-Serif" font-size="11.00">UDP 6790</text>
</g>
<!-- cat&#45;&gt;rkey -->
<g id="edge3" class="edge">
<title>cat&#45;&gt;rkey</title>
<path fill="none" stroke="#555555" d="M130.44,-142.71C151.16,-151.06 174.87,-160.54 196.5,-169 200.28,-170.48 204.17,-171.99 208.1,-173.51"/>
<polygon fill="#555555" stroke="#555555" points="131.89,-139.52 121.31,-139.03 129.27,-146.01 131.89,-139.52"/>
<polygon fill="#555555" stroke="#555555" points="206.53,-176.65 217.12,-176.98 209.04,-170.12 206.53,-176.65"/>
<text xml:space="preserve" text-anchor="middle" x="167.75" y="-166.48" font-family="Helvetica,sans-Serif" font-size="9.00">DTR/RTS</text>
</g>
<!-- snd -->
<g id="node2" class="node">
<title>snd</title>
<path fill="#cfe2ff" stroke="black" d="M119,-84C119,-84 28,-84 28,-84 22,-84 16,-78 16,-72 16,-72 16,-60 16,-60 16,-54 22,-48 28,-48 28,-48 119,-48 119,-48 125,-48 131,-54 131,-60 131,-60 131,-72 131,-72 131,-78 125,-84 119,-84"/>
<text xml:space="preserve" text-anchor="middle" x="73.5" y="-62.3" font-family="Helvetica,sans-Serif" font-size="11.00">USB audio CODEC</text>
</g>
<!-- audio -->
<g id="node5" class="node">
<title>audio</title>
<path fill="#d1e7dd" stroke="black" d="M320.25,-52C320.25,-52 216.5,-52 216.5,-52 210.5,-52 204.5,-46 204.5,-40 204.5,-40 204.5,-28 204.5,-28 204.5,-22 210.5,-16 216.5,-16 216.5,-16 320.25,-16 320.25,-16 326.25,-16 332.25,-22 332.25,-28 332.25,-28 332.25,-40 332.25,-40 332.25,-46 326.25,-52 320.25,-52"/>
<text xml:space="preserve" text-anchor="middle" x="268.38" y="-37.05" font-family="Helvetica,sans-Serif" font-size="11.00">audio stream server</text>
<text xml:space="preserve" text-anchor="middle" x="268.38" y="-23.55" font-family="Helvetica,sans-Serif" font-size="11.00">UDP 7355</text>
</g>
<!-- snd&#45;&gt;audio -->
<g id="edge4" class="edge">
<title>snd&#45;&gt;audio</title>
<path fill="none" stroke="#555555" d="M131.33,-56.57C150.64,-53.37 172.52,-49.74 193,-46.34"/>
<polygon fill="#555555" stroke="#555555" points="193.42,-49.82 202.71,-44.73 192.27,-42.91 193.42,-49.82"/>
<text xml:space="preserve" text-anchor="middle" x="167.75" y="-55.57" font-family="Helvetica,sans-Serif" font-size="9.00">capture</text>
</g>
<!-- ctl -->
<g id="node7" class="node">
<title>ctl</title>
<polygon fill="#fff3cd" stroke="black" points="535.75,-160 434.25,-160 434.25,-124 541.75,-124 541.75,-154 535.75,-160"/>
<polyline fill="none" stroke="black" points="535.75,-160 535.75,-154"/>
<polyline fill="none" stroke="black" points="541.75,-154 535.75,-154"/>
<text xml:space="preserve" text-anchor="middle" x="488" y="-145.05" font-family="Helvetica,sans-Serif" font-size="11.00">WSJT&#45;X / fldigi /</text>
<text xml:space="preserve" text-anchor="middle" x="488" y="-131.55" font-family="Helvetica,sans-Serif" font-size="11.00">logging software</text>
</g>
<!-- rigctld&#45;&gt;ctl -->
<g id="edge5" class="edge">
<title>rigctld&#45;&gt;ctl</title>
<path fill="none" stroke="#555555" d="M324.85,-142C354.66,-142 391.57,-142 422.64,-142"/>
<polygon fill="#555555" stroke="#555555" points="324.93,-138.5 314.93,-142 324.93,-145.5 324.93,-138.5"/>
<polygon fill="#555555" stroke="#555555" points="422.28,-145.5 432.28,-142 422.28,-138.5 422.28,-145.5"/>
</g>
<!-- keyclient -->
<g id="node8" class="node">
<title>keyclient</title>
<polygon fill="#fff3cd" stroke="black" points="534.25,-106 435.75,-106 435.75,-70 540.25,-70 540.25,-100 534.25,-106"/>
<polyline fill="none" stroke="black" points="534.25,-106 534.25,-100"/>
<polyline fill="none" stroke="black" points="540.25,-100 534.25,-100"/>
<text xml:space="preserve" text-anchor="middle" x="488" y="-91.05" font-family="Helvetica,sans-Serif" font-size="11.00">contest / keying</text>
<text xml:space="preserve" text-anchor="middle" x="488" y="-77.55" font-family="Helvetica,sans-Serif" font-size="11.00">software</text>
</g>
<!-- cwd&#45;&gt;keyclient -->
<g id="edge6" class="edge">
<title>cwd&#45;&gt;keyclient</title>
<path fill="none" stroke="#555555" d="M337.39,-88C365.13,-88 397,-88 424.18,-88"/>
<polygon fill="#555555" stroke="#555555" points="337.5,-84.5 327.5,-88 337.5,-91.5 337.5,-84.5"/>
<polygon fill="#555555" stroke="#555555" points="424,-91.5 434,-88 424,-84.5 424,-91.5"/>
</g>
<!-- listeners -->
<g id="node9" class="node">
<title>listeners</title>
<polygon fill="#fff3cd" stroke="black" points="550.38,-52.25 419.62,-52.25 419.62,-3.75 556.38,-3.75 556.38,-46.25 550.38,-52.25"/>
<polyline fill="none" stroke="black" points="550.38,-52.25 550.38,-46.25"/>
<polyline fill="none" stroke="black" points="556.38,-46.25 550.38,-46.25"/>
<text xml:space="preserve" text-anchor="middle" x="488" y="-37.8" font-family="Helvetica,sans-Serif" font-size="11.00">Opus listeners</text>
<text xml:space="preserve" text-anchor="middle" x="488" y="-24.3" font-family="Helvetica,sans-Serif" font-size="11.00">(subscribe by sending</text>
<text xml:space="preserve" text-anchor="middle" x="488" y="-10.8" font-family="Helvetica,sans-Serif" font-size="11.00">a datagram)</text>
</g>
<!-- audio&#45;&gt;listeners -->
<g id="edge7" class="edge">
<title>audio&#45;&gt;listeners</title>
<path fill="none" stroke="#555555" d="M332.61,-32.26C356.23,-31.61 383.34,-30.86 408.19,-30.17"/>
<polygon fill="#555555" stroke="#555555" points="408.01,-33.68 417.91,-29.9 407.82,-26.68 408.01,-33.68"/>
<text xml:space="preserve" text-anchor="middle" x="374.62" y="-34.41" font-family="Helvetica,sans-Serif" font-size="9.00">Opus/UDP</text>
</g>
<!-- paddle -->
<g id="node10" class="node">
<title>paddle</title>
<polygon fill="#fff3cd" stroke="black" points="553,-226.25 417,-226.25 417,-177.75 559,-177.75 559,-220.25 553,-226.25"/>
<polyline fill="none" stroke="black" points="553,-226.25 553,-220.25"/>
<polyline fill="none" stroke="black" points="559,-220.25 553,-220.25"/>
<text xml:space="preserve" text-anchor="middle" x="488" y="-211.8" font-family="Helvetica,sans-Serif" font-size="11.00">operator paddle client</text>
<text xml:space="preserve" text-anchor="middle" x="488" y="-198.3" font-family="Helvetica,sans-Serif" font-size="11.00">(streams timestamped</text>
<text xml:space="preserve" text-anchor="middle" x="488" y="-184.8" font-family="Helvetica,sans-Serif" font-size="11.00">key edges)</text>
</g>
<!-- rkey&#45;&gt;paddle -->
<g id="edge8" class="edge">
<title>rkey&#45;&gt;paddle</title>
<path fill="none" stroke="#555555" d="M338.9,-197.92C360.12,-198.5 383.65,-199.15 405.59,-199.76"/>
<polygon fill="#555555" stroke="#555555" points="339.3,-194.43 329.21,-197.65 339.11,-201.42 339.3,-194.43"/>
<polygon fill="#555555" stroke="#555555" points="405.29,-203.25 415.38,-200.03 405.48,-196.25 405.29,-203.25"/>
<text xml:space="preserve" text-anchor="middle" x="374.62" y="-202.24" font-family="Helvetica,sans-Serif" font-size="9.00">edges/UDP</text>
</g>
</g>
</svg>
